<?xml version="1.0" standalone="no"?>
<!DOCTYPE svg PUBLIC "-//W3C//DTD SVG 20010904//EN"
 "http://www.w3.org/TR/2001/REC-SVG-20010904/DTD/svg10.dtd">
<svg version="1.0" xmlns="http://www.w3.org/2000/svg"
 width="600.000000pt" height="261.000000pt" viewBox="0 0 600.000000 261.000000"
 preserveAspectRatio="xMidYMid meet">

<g transform="translate(0.000000,261.000000) scale(0.100000,-0.100000)"
fill="#000000" stroke="none">
<path d="M3720 1958 c-14 -8 -33 -29 -43 -48 -32 -63 -447 -922 -447 -926 0
-2 53 -4 118 -4 l118 0 153 313 152 312 71 -137 c39 -76 75 -138 79 -138 4 0
30 32 59 70 80 108 80 110 -33 336 -52 104 -104 197 -115 207 -26 24 -81 31
-112 15z"/>
<path d="M3901 1276 c-112 -63 -207 -118 -213 -124 -5 -5 43 -12 128 -16 174
-9 194 -17 234 -95 l30 -61 125 0 125 0 -102 205 c-57 113 -107 205 -113 205
-6 0 -102 -51 -214 -114z"/>
</g>
</svg>
