<?xml version="1.0" encoding="UTF-8" standalone="no" ?>
<!DOCTYPE svg PUBLIC "-//W3C//DTD SVG 1.1//EN" "http://www.w3.org/Graphics/SVG/1.1/DTD/svg11.dtd">
<svg xmlns="http://www.w3.org/2000/svg" xmlns:xlink="http://www.w3.org/1999/xlink" version="1.1" width="1080" height="1080" viewBox="0 0 1080 1080" xml:space="preserve">
<desc>Created with Fabric.js 5.2.4</desc>
<defs>
</defs>
<g transform="matrix(1 0 0 1 540 540)" id="cf5a1acf-7268-49f0-b8c7-64977bf3284e"  >
<rect style="stroke: none; stroke-width: 1; stroke-dasharray: none; stroke-linecap: butt; stroke-dashoffset: 0; stroke-linejoin: miter; stroke-miterlimit: 4; fill: rgb(255,255,255); fill-rule: nonzero; opacity: 1; visibility: hidden;" vector-effect="non-scaling-stroke"  x="-540" y="-540" rx="0" ry="0" width="1080" height="1080" />
</g>
<g transform="matrix(1 0 0 1 540 540)" id="b8bdd9ec-e495-4f8a-9a94-42f4538958b5"  >
</g>
<g transform="matrix(1 0 0 1 540 540)"  >
<g style="" vector-effect="non-scaling-stroke"   >
		<g transform="matrix(0.13 0 0 -0.13 -19.57 0)"  >
<path style="stroke: none; stroke-width: 1; stroke-dasharray: none; stroke-linecap: butt; stroke-dashoffset: 0; stroke-linejoin: miter; stroke-miterlimit: 4; fill: rgb(255,255,255); fill-rule: nonzero; opacity: 1;" vector-effect="non-scaling-stroke"  transform=" translate(-3633.2, -1473.31)" d="M 3720 1958 C 3706 1950 3687 1929 3677 1910 C 3645 1847 3230 988 3230 984 C 3230 982 3283 980 3348 980 L 3466 980 L 3619 1293 L 3771 1605 L 3842 1468 C 3881 1392 3917 1330 3921 1330 C 3925 1330 3951 1362 3980 1400 C 4060 1508 4060 1510 3947 1736 C 3895 1840 3843 1933 3832 1943 C 3806 1967 3751 1974 3720 1958 z" stroke-linecap="round" />
</g>
		<g transform="matrix(0.13 0 0 -0.13 30.51 38.44)"  >
<path style="stroke: none; stroke-width: 1; stroke-dasharray: none; stroke-linecap: butt; stroke-dashoffset: 0; stroke-linejoin: miter; stroke-miterlimit: 4; fill: rgb(255,255,255); fill-rule: nonzero; opacity: 1;" vector-effect="non-scaling-stroke"  transform=" translate(-4008.82, -1185)" d="M 3901 1276 C 3789 1213 3694 1158 3688 1152 C 3683 1147 3731 1140 3816 1136 C 3990 1127 4010 1119 4050 1041 L 4080 980 L 4205 980 L 4330 980 L 4228 1185 C 4171 1298 4121 1390 4115 1390 C 4109 1390 4013 1339 3901 1276 z" stroke-linecap="round" />
</g>
</g>
</g>
</svg>